<?xml version="1.0" standalone="no"?>
<!DOCTYPE svg PUBLIC "-//W3C//DTD SVG 20010904//EN"
 "http://www.w3.org/TR/2001/REC-SVG-20010904/DTD/svg10.dtd">
<svg version="1.0" xmlns="http://www.w3.org/2000/svg"
 width="1280.000000pt" height="1234.000000pt" viewBox="0 0 1280.000000 1234.000000"
 preserveAspectRatio="xMidYMid meet">
<metadata>
Created by potrace 1.15, written by Peter Selinger 2001-2017
</metadata>
<g transform="translate(0.000000,1234.000000) scale(0.100000,-0.100000)"
fill="#000000" stroke="none">
<path d="M8185 10279 c-290 -22 -600 -70 -865 -135 -172 -41 -419 -113 -538
-156 l-84 -31 5 -49 c4 -34 2 -50 -6 -53 -7 -2 -273 -22 -592 -45 -319 -22
-831 -58 -1137 -80 -307 -22 -562 -40 -567 -40 -5 0 -11 6 -13 13 -2 11 -201
-40 -788 -202 -649 -179 -785 -219 -788 -234 -3 -13 -9 -16 -20 -11 -10 4 -30
9 -47 11 -38 5 -599 32 -602 29 -1 -1 7 -44 18 -96 41 -191 36 -482 -12 -708
-11 -52 -19 -96 -16 -98 4 -4 596 62 627 70 8 2 24 7 34 12 16 6 18 4 13 -9
-3 -9 -5 -17 -4 -17 1 0 358 -92 792 -204 720 -186 790 -202 793 -185 3 14 12
19 34 19 17 0 329 -25 692 -55 364 -30 855 -70 1091 -90 237 -19 451 -37 478
-41 l47 -6 0 -54 c0 -30 3 -54 6 -54 3 0 83 -16 177 -36 235 -48 608 -111 747
-125 63 -6 123 -16 133 -21 41 -21 62 -112 58 -241 -1 -38 -1 -38 -36 -31 -79
14 -120 -66 -120 -233 0 -115 15 -150 74 -167 37 -11 37 -4 16 -211 -34 -347
-78 -914 -125 -1605 -34 -488 -33 -550 1 -790 34 -244 163 -698 216 -760 l23
-28 -25 -89 c-51 -174 -68 -309 -62 -503 4 -144 9 -192 30 -271 54 -206 131
-343 265 -471 337 -322 866 -333 1273 -26 219 165 377 420 490 792 66 219 125
543 145 797 l6 86 -77 6 c-43 4 -92 7 -110 7 l-32 0 -7 -97 c-28 -410 -153
-881 -298 -1128 -141 -240 -339 -391 -589 -450 -83 -19 -256 -19 -339 1 -85
20 -212 82 -277 136 -253 211 -334 611 -212 1048 12 41 26 85 33 97 6 12 54
43 111 72 55 27 129 72 165 99 89 67 224 211 288 307 223 334 355 836 413
1570 22 280 2 853 -52 1455 -17 193 -19 245 -9 295 24 124 122 276 213 330 35
20 108 35 398 84 364 61 439 81 543 141 187 107 341 316 411 555 48 167 58
258 52 495 -6 223 -23 368 -59 505 -96 362 -333 596 -742 730 -195 64 -517
127 -816 160 -173 19 -671 28 -845 14z"/>
</g>
</svg>
