<?xml version="1.0" standalone="no"?>
<!DOCTYPE svg PUBLIC "-//W3C//DTD SVG 20010904//EN"
 "http://www.w3.org/TR/2001/REC-SVG-20010904/DTD/svg10.dtd">
<svg version="1.0" xmlns="http://www.w3.org/2000/svg"
 width="1280.000000pt" height="643.000000pt" viewBox="0 0 1280.000000 643.000000"
 preserveAspectRatio="xMidYMid meet">
<metadata>
Created by potrace 1.15, written by Peter Selinger 2001-2017
</metadata>
<g transform="translate(0.000000,643.000000) scale(0.100000,-0.100000)"
fill="#000000" stroke="none">
<path d="M2485 6423 c-399 -49 -717 -206 -980 -485 -302 -320 -455 -758 -416
-1186 50 -554 367 -1020 861 -1267 296 -147 665 -195 995 -129 539 109 990
508 1164 1029 115 344 104 734 -29 1065 -119 298 -351 576 -625 747 -128 81
-343 167 -487 197 -154 32 -362 44 -483 29z"/>
<path d="M9980 6420 c-190 -27 -356 -77 -511 -155 -430 -216 -728 -606 -830
-1085 -30 -141 -33 -438 -6 -575 97 -490 387 -882 819 -1105 500 -259 1096
-227 1566 83 827 546 938 1712 230 2404 -215 210 -512 365 -803 418 -106 19
-372 28 -465 15z"/>
<path d="M6190 5475 c-651 -89 -1167 -569 -1311 -1218 -26 -117 -37 -394 -20
-520 45 -334 189 -631 426 -876 246 -255 541 -406 900 -462 102 -15 344 -13
455 5 321 52 604 193 839 420 306 296 471 684 471 1109 0 262 -43 451 -155
682 -117 241 -278 431 -498 588 -315 226 -719 325 -1107 272z"/>
<path d="M1108 3258 c-138 -103 -379 -337 -482 -468 -378 -479 -597 -1074
-623 -1694 l-6 -156 1864 0 1865 0 33 103 c101 308 293 659 507 927 130 162
457 470 560 528 16 9 15 15 -15 64 -97 159 -293 393 -451 536 -96 87 -288 238
-317 249 -6 3 -48 -25 -92 -61 -356 -289 -776 -450 -1233 -472 -487 -23 -1005
152 -1393 470 -44 36 -83 66 -87 66 -4 0 -63 -41 -130 -92z"/>
<path d="M8651 3270 c-142 -107 -257 -212 -374 -339 -95 -103 -243 -295 -292
-377 l-24 -41 107 -84 c267 -210 519 -494 696 -788 111 -183 230 -443 287
-628 l23 -73 1865 0 1864 0 -6 153 c-24 558 -186 1059 -492 1517 -159 238
-392 485 -619 654 -101 76 -121 88 -137 78 -9 -6 -53 -40 -96 -74 -178 -144
-430 -281 -648 -353 -669 -219 -1401 -81 -1952 368 -45 37 -86 67 -90 67 -4
-1 -55 -36 -112 -80z"/>
<path d="M4890 2332 c-682 -509 -1102 -1332 -1122 -2197 l-3 -130 2633 -3
c2242 -2 2633 0 2638 12 10 27 -17 371 -41 512 -103 607 -369 1128 -790 1549
-133 134 -377 335 -405 335 -6 0 -43 -27 -83 -61 -219 -185 -524 -340 -817
-414 -174 -44 -301 -59 -500 -59 -199 0 -326 15 -500 59 -293 74 -598 229
-817 414 -40 34 -76 61 -80 61 -5 0 -55 -35 -113 -78z"/>
</g>
</svg>
