<?xml version="1.0" standalone="no"?>
<!DOCTYPE svg PUBLIC "-//W3C//DTD SVG 20010904//EN"
 "http://www.w3.org/TR/2001/REC-SVG-20010904/DTD/svg10.dtd">
<svg version="1.0" xmlns="http://www.w3.org/2000/svg"
 width="626.000000pt" height="626.000000pt" viewBox="0 0 626.000000 626.000000"
 preserveAspectRatio="xMidYMid meet">

<g transform="translate(0.000000,626.000000) scale(0.100000,-0.100000)"
fill="#000000" stroke="none">
<path d="M0 3130 l0 -3130 3130 0 3130 0 0 3130 0 3130 -3130 0 -3130 0 0
-3130z m2771 2501 c77 -78 -7 -208 -107 -166 -104 43 -76 195 36 195 33 0 48
-6 71 -29z m356 -2 c94 -35 117 -150 42 -213 -24 -20 -42 -26 -79 -26 -137 0
-172 180 -45 236 37 16 46 17 82 3z m773 -29 c24 -24 25 -48 4 -78 -18 -26
-65 -30 -88 -6 -24 23 -20 70 6 88 30 21 54 20 78 -4z m-1535 -35 c51 -50 15
-135 -58 -135 -73 0 -108 90 -53 137 36 30 80 30 111 -2z m1177 -76 c59 -42
77 -133 38 -197 -27 -44 -96 -75 -146 -66 -66 12 -124 82 -124 150 0 43 39
102 84 124 48 25 103 20 148 -11z m721 -21 c32 -16 46 -39 47 -71 0 -62 -54
-100 -110 -77 -66 27 -69 111 -5 148 26 15 41 15 68 0z m-2289 -70 c21 -30 20
-54 -4 -78 -55 -55 -136 24 -83 82 23 25 68 23 87 -4z m1897 -119 c91 -65 105
-170 32 -250 -93 -103 -252 -60 -284 78 -31 139 137 254 252 172z m726 -41
c31 -15 56 -72 48 -108 -14 -62 -99 -100 -156 -70 -23 13 -49 61 -49 92 0 38
36 86 72 96 34 9 48 8 85 -10z m-2364 -72 c42 -17 93 -76 102 -116 4 -17 4
-46 1 -63 -32 -168 -258 -193 -321 -35 -53 134 85 270 218 214z m399 -56 c20
-6 50 -26 67 -45 56 -64 50 -147 -14 -204 -47 -41 -91 -48 -149 -23 -115 51
-117 211 -3 262 49 23 51 23 99 10z m-749 -69 c38 -41 39 -44 35 -102 -3 -45
-10 -65 -29 -85 -32 -35 -71 -54 -109 -54 -146 0 -202 186 -80 268 29 20 44
23 89 19 48 -3 58 -8 94 -46z m2952 -85 c67 -28 95 -120 56 -180 -26 -39 -57
-55 -109 -56 -34 0 -49 6 -78 33 -65 59 -52 158 26 199 42 22 60 22 105 4z
m-738 -7 c67 -25 111 -99 98 -165 -8 -46 -58 -101 -103 -114 -77 -21 -160 28
-181 106 -30 111 80 213 186 173z m-1047 -28 c36 -25 63 -84 55 -121 -16 -72
-90 -118 -159 -99 -82 23 -116 132 -60 198 42 51 109 59 164 22z m-1570 -27
c67 -40 81 -130 29 -188 -92 -105 -259 -2 -205 127 28 67 114 97 176 61z
m1906 -248 c51 -51 44 -124 -16 -159 -35 -21 -62 -21 -101 -1 -68 35 -71 135
-5 175 47 29 82 25 122 -15z m-2203 -36 c36 -40 38 -100 3 -135 -68 -68 -176
-27 -176 67 1 49 14 71 56 93 39 21 83 12 117 -25z m3827 2 c19 -9 45 -33 58
-52 20 -29 23 -44 19 -89 -3 -48 -8 -58 -46 -94 -41 -38 -44 -39 -102 -35 -45
3 -65 10 -85 29 -41 38 -57 77 -51 127 6 53 30 88 77 113 43 24 85 24 130 1z
m-710 -89 c97 -87 12 -248 -112 -212 -141 40 -113 239 33 239 39 0 55 -5 79
-27z m-2010 -148 c36 -18 52 -47 52 -90 0 -43 -16 -72 -52 -90 -38 -19 -65
-19 -100 2 -60 35 -67 108 -16 159 38 38 70 43 116 19z m3112 -2 c25 -23 23
-68 -4 -87 -30 -21 -54 -20 -78 4 -55 55 24 136 82 83z m-3493 -59 c100 -84
16 -248 -109 -214 -57 15 -90 60 -90 122 0 44 4 54 34 84 30 30 40 34 84 34
40 0 57 -6 81 -26z m1732 -13 c33 -33 35 -50 14 -90 -16 -32 -33 -41 -76 -41
-35 0 -79 39 -79 69 0 81 85 118 141 62z m-924 -3 c32 -30 31 -81 -2 -113 -72
-73 -178 28 -114 109 27 34 82 36 116 4z m-1808 2 c31 -16 46 -65 31 -100 -7
-17 -21 -35 -31 -40 -48 -26 -112 2 -125 54 -6 26 17 81 38 89 22 9 68 7 87
-3z m4198 -76 c18 -14 40 -36 49 -49 22 -34 29 -96 15 -138 -16 -47 -80 -104
-126 -113 -82 -15 -173 43 -194 124 -40 148 135 269 256 176z m-3610 -35 c134
-50 125 -241 -13 -278 -135 -36 -236 123 -147 230 44 52 103 70 160 48z m1608
-64 c14 -13 25 -31 25 -38 0 -27 -35 -59 -65 -59 -30 0 -65 32 -65 59 0 19 45
63 65 63 9 0 27 -11 40 -25z m1251 -39 c40 -40 44 -75 14 -123 -39 -64 -140
-61 -174 6 -20 39 -20 66 1 101 35 60 108 67 159 16z m1212 -79 c32 -29 30
-81 -4 -112 -68 -63 -162 11 -128 100 9 22 63 46 89 38 11 -3 30 -15 43 -26z
m-4368 -80 c50 -26 90 -90 90 -141 -1 -43 -32 -108 -65 -134 -39 -31 -92 -43
-139 -32 -55 12 -87 38 -115 93 -31 62 -23 122 22 174 58 66 132 80 207 40z
m-462 -23 c26 -18 30 -65 6 -88 -23 -24 -70 -20 -88 6 -21 30 -20 54 4 78 24
24 48 25 78 4z m3064 -11 c25 -23 23 -68 -4 -87 -30 -21 -54 -20 -78 4 -55 55
24 136 82 83z m-1352 -93 c11 -11 20 -29 20 -40 0 -26 -34 -60 -62 -60 -50 0
-76 63 -41 102 21 24 58 23 83 -2z m2598 -10 c44 -27 75 -96 66 -146 -9 -46
-55 -100 -100 -114 -99 -33 -210 63 -188 162 22 102 135 151 222 98z m-754
-131 c19 -15 26 -29 26 -57 0 -75 -83 -110 -135 -57 -73 72 28 178 109 114z
m-2245 -4 c49 -25 57 -90 16 -130 -51 -52 -135 -11 -135 66 0 24 52 79 75 79
9 0 29 -7 44 -15z m3582 -24 c64 -64 20 -171 -69 -171 -77 0 -125 69 -97 136
29 69 114 87 166 35z m-4663 -51 c44 -27 75 -96 66 -146 -12 -66 -82 -124
-150 -124 -76 0 -153 92 -139 167 19 105 134 157 223 103z m765 -171 c29 -13
57 -58 57 -91 0 -38 -35 -85 -73 -97 -67 -22 -137 31 -137 105 0 38 59 94 99
94 16 0 41 -5 54 -11z m3165 -36 c76 -64 51 -182 -44 -213 -89 -30 -179 61
-153 154 23 84 130 115 197 59z m682 -102 c36 -25 63 -84 55 -120 -16 -73 -87
-119 -155 -101 -57 15 -90 60 -90 120 0 103 105 159 190 101z m-1455 -36 c32
-31 31 -50 0 -81 -26 -25 -52 -26 -82 -2 -22 18 -16 75 9 92 31 22 45 20 73
-9z m-3328 -30 c70 -20 98 -134 47 -194 -63 -76 -183 -50 -214 45 -21 62 20
134 86 154 29 8 38 7 81 -5z m1422 -100 c21 -20 17 -66 -9 -87 -30 -24 -46
-23 -75 7 -32 31 -31 50 0 81 27 26 55 26 84 -1z m-709 -23 c100 -72 53 -222
-70 -222 -138 0 -172 179 -45 236 35 16 80 11 115 -14z m3105 -46 c37 -16 65
-60 65 -102 0 -41 -59 -94 -105 -94 -46 0 -105 53 -105 94 0 41 28 86 63 101
40 18 41 18 82 1z m826 -108 c51 -29 84 -93 74 -145 -14 -76 -70 -123 -147
-123 -59 0 -105 30 -129 85 -24 55 -18 103 19 147 50 59 118 73 183 36z
m-4667 -157 c64 -67 18 -171 -75 -171 -31 0 -47 7 -70 29 -65 66 -20 171 73
171 36 0 50 -6 72 -29z m3509 -22 c26 -12 47 -47 47 -78 0 -27 -36 -68 -65
-75 -29 -7 -79 15 -89 39 -15 39 -6 83 20 104 30 24 52 26 87 10z m-2940 -23
c18 -7 45 -28 60 -45 37 -45 43 -89 19 -145 -52 -116 -212 -117 -263 -1 -32
73 -8 141 65 186 37 22 75 24 119 5z m732 -11 c73 -73 -37 -184 -112 -113 -30
28 -31 83 -1 115 30 32 81 31 113 -2z m3147 -91 c35 -18 65 -58 79 -105 23
-74 -28 -170 -104 -198 -75 -29 -166 6 -204 79 -29 54 -29 94 0 150 45 89 139
119 229 74z m-1330 -81 c39 -35 11 -103 -43 -103 -30 0 -59 31 -59 62 0 25 35
58 62 58 12 0 30 -7 40 -17z m-1352 -93 c24 -24 26 -57 3 -82 -33 -37 -103
-11 -103 39 0 28 33 63 60 63 11 0 29 -9 40 -20z m3066 -16 c37 -55 -25 -117
-80 -80 -30 19 -35 65 -10 90 25 25 71 20 90 -10z m-4801 -69 c44 -43 29 -112
-28 -134 -79 -30 -143 77 -81 134 35 32 78 32 109 0z m4045 -15 c29 0 87 -56
100 -96 33 -100 -62 -209 -166 -189 -47 8 -101 58 -114 104 -12 45 1 100 33
136 23 27 93 57 115 50 8 -3 22 -5 32 -5z m-2835 -14 c69 -29 84 -109 31 -162
-43 -43 -90 -46 -135 -8 -58 49 -46 140 22 169 40 18 41 18 82 1z m-699 -15
c107 -49 133 -184 50 -267 -69 -69 -165 -67 -237 5 -62 62 -65 151 -6 218 56
63 119 78 193 44z m1930 -117 c19 -28 11 -59 -21 -80 -47 -31 -109 21 -86 72
21 46 79 51 107 8z m1228 -48 c51 -21 76 -60 76 -118 0 -43 -4 -54 -34 -84
-30 -30 -40 -34 -84 -34 -40 0 -57 6 -81 26 -72 60 -54 171 34 210 38 17 49
17 89 0z m967 -59 c19 -15 39 -50 39 -71 0 -8 -12 -28 -26 -45 -42 -50 -109
-40 -134 19 -14 34 0 83 29 100 23 13 73 12 92 -3z m-1786 -22 c50 -49 17
-135 -53 -135 -48 0 -82 32 -82 77 0 44 37 83 80 83 19 0 40 -9 55 -25z m-920
-10 c50 -49 13 -134 -58 -135 -32 0 -87 47 -87 75 0 22 27 72 42 78 34 14 80
6 103 -18z m1334 1 c83 -43 56 -178 -39 -192 -106 -15 -158 131 -66 187 37 23
67 24 105 5z m-3129 -96 c55 -55 -24 -136 -82 -83 -25 23 -23 68 4 87 30 21
54 20 78 -4z m1135 -20 c25 0 74 -51 84 -86 13 -47 -3 -97 -40 -128 -24 -20
-41 -26 -81 -26 -44 0 -54 4 -84 34 -30 30 -34 40 -34 84 0 40 6 57 26 81 25
31 77 53 102 45 8 -2 20 -4 27 -4z m-687 -50 c41 -25 72 -76 72 -118 0 -148
-185 -205 -268 -82 -20 29 -23 44 -19 89 3 48 9 59 45 93 36 33 47 38 89 38
30 0 60 -7 81 -20z m3812 -95 c37 -19 50 -43 50 -92 0 -94 -114 -134 -175 -61
-42 50 -32 123 23 152 35 20 66 20 102 1z m-2204 -34 c89 -54 45 -191 -62
-191 -38 0 -94 59 -94 99 0 42 17 74 48 94 36 22 70 21 108 -2z m-711 -200
c64 -37 90 -142 49 -198 -37 -49 -72 -68 -124 -68 -82 0 -145 63 -145 145 0
60 24 96 86 128 48 25 81 23 134 -7z m2608 15 c61 -25 89 -97 63 -159 -28 -69
-119 -98 -180 -58 -62 41 -76 126 -29 181 42 50 87 61 146 36z m-1566 -31 c70
-20 98 -134 47 -194 -63 -76 -183 -50 -214 45 -21 62 20 134 86 154 29 8 38 7
81 -5z m-1773 -46 c59 -51 61 -128 5 -180 -105 -98 -268 36 -190 155 26 39 57
55 108 56 33 0 50 -7 77 -31z m2990 -63 c102 -43 112 -190 16 -254 -29 -20
-44 -23 -89 -19 -48 3 -58 8 -94 46 -38 41 -39 44 -35 101 5 63 20 88 73 121
36 22 83 24 129 5z m-817 -26 c113 -51 112 -211 -2 -261 -61 -27 -108 -18
-157 30 -38 39 -55 91 -44 135 13 54 88 115 141 115 11 0 39 -8 62 -19z m416
-14 c51 -19 76 -42 99 -95 30 -66 18 -123 -36 -177 -46 -46 -91 -61 -153 -49
-51 9 -119 78 -128 129 -15 79 34 164 110 191 50 17 60 18 108 1z m-1597 -135
c107 -49 133 -184 50 -267 -70 -70 -174 -67 -240 7 -59 65 -60 151 -3 216 56
63 119 78 193 44z m-761 -85 c68 -68 27 -176 -68 -176 -48 0 -81 23 -98 68
-35 92 96 177 166 108z m1094 -175 c98 -70 89 -201 -16 -252 -99 -48 -203 21
-203 133 0 113 130 184 219 119z m1493 -68 c39 -35 11 -103 -43 -103 -30 0
-59 31 -59 62 0 25 35 58 62 58 12 0 30 -7 40 -17z m-2303 -8 c65 -33 50 -132
-23 -151 -28 -7 -81 18 -90 41 -17 46 0 100 37 115 32 13 44 12 76 -5z m1181
-92 c73 -66 48 -182 -46 -213 -89 -30 -179 61 -153 154 23 84 135 116 199 59z
m752 -27 c44 -33 42 -98 -4 -130 -53 -37 -128 0 -128 64 0 62 83 104 132 66z
m-408 -20 c106 -44 79 -196 -34 -196 -60 0 -100 41 -100 102 0 35 6 50 28 70
15 14 36 28 47 31 11 3 21 5 23 6 1 0 18 -5 36 -13z m-1150 -52 c25 -25 20
-71 -10 -90 -55 -37 -117 25 -80 80 19 30 65 35 90 10z"/>
</g>
</svg>
